<svg width="24" height="23" viewBox="0 0 24 23" fill="currentColor" xmlns="http://www.w3.org/2000/svg">
<path d="M7.50006 18.2082C8.32848 18.2082 9.00006 17.5646 9.00006 16.7707C9.00006 15.9768 8.32848 15.3332 7.50006 15.3332C6.67163 15.3332 6.00006 15.9768 6.00006 16.7707C6.00006 17.5646 6.67163 18.2082 7.50006 18.2082Z" fill="currentColor"/>
<path d="M18.0001 16.7707C18.0001 17.5646 17.3285 18.2082 16.5001 18.2082C15.6716 18.2082 15.0001 17.5646 15.0001 16.7707C15.0001 15.9768 15.6716 15.3332 16.5001 15.3332C17.3285 15.3332 18.0001 15.9768 18.0001 16.7707Z" fill="currentColor"/>
<path fill-rule="evenodd" clip-rule="evenodd" d="M3.00006 12.2817V5.74984C3.00006 3.63275 4.79092 1.9165 7.00006 1.9165H17.0001C19.2092 1.9165 21.0001 3.63275 21.0001 5.74984V12.2817C21.338 12.1356 21.7449 12.2487 21.9453 12.559C22.1633 12.8965 22.0546 13.3395 21.7024 13.5484L21.0001 13.9652V17.2498C21.0001 19.3669 19.2092 21.0832 17.0001 21.0832H7.00006C4.79092 21.0832 3.00006 19.3669 3.00006 17.2498V13.9652L2.29768 13.5484C1.9455 13.3395 1.83677 12.8965 2.05481 12.559C2.25526 12.2487 2.66209 12.1356 3.00006 12.2817ZM4.50006 5.74984C4.50006 4.42666 5.61935 3.354 7.00006 3.354H17.0001C18.3808 3.354 19.5001 4.42666 19.5001 5.74984V5.81022C19.3402 5.7708 19.1727 5.74984 19.0001 5.74984H5.00006C4.82741 5.74984 4.65987 5.7708 4.50006 5.81022V5.74984ZM4.50006 7.6665V12.4582C4.50006 12.7228 4.72392 12.9373 5.00006 12.9373H19.0001C19.2762 12.9373 19.5001 12.7228 19.5001 12.4582V7.6665C19.5001 7.40187 19.2762 7.18734 19.0001 7.18734H5.00006C4.72392 7.18734 4.50006 7.40187 4.50006 7.6665ZM19.5001 14.3145C19.3402 14.3539 19.1727 14.3748 19.0001 14.3748H5.00006C4.82741 14.3748 4.65987 14.3539 4.50006 14.3145V17.2498C4.50006 18.573 5.61935 19.6457 7.00006 19.6457H17.0001C18.3808 19.6457 19.5001 18.573 19.5001 17.2498V14.3145Z" fill="currentColor"/>
</svg>
