<svg width="24" height="23" viewBox="0 0 24 23" fill="currentColor" xmlns="http://www.w3.org/2000/svg">
<path fill-rule="evenodd" clip-rule="evenodd" d="M9 4.7915C9 6.12899 8.04699 7.25315 6.75624 7.57438C6.79417 8.71449 7.00016 9.35696 7.23344 9.71915C7.46153 10.0733 7.75241 10.2171 8.14421 10.2853C8.35577 10.3221 8.59085 10.3347 8.86129 10.3382C8.94842 10.3393 9.04838 10.3393 9.15351 10.3394C9.33872 10.3394 9.54003 10.3395 9.71546 10.3455C10.2809 10.3648 11.037 10.4449 11.6063 10.9927C11.7563 11.137 11.8867 11.2864 12 11.4405C12.1133 11.2864 12.2437 11.137 12.3937 10.9927C12.963 10.4449 13.7191 10.3648 14.2845 10.3455C14.46 10.3395 14.6612 10.3394 14.8464 10.3394C14.9516 10.3393 15.0516 10.3393 15.1387 10.3382C15.4092 10.3347 15.6442 10.3221 15.8558 10.2853C16.2476 10.2171 16.5385 10.0733 16.7666 9.71915C16.9998 9.35696 17.2058 8.71449 17.2438 7.57438C15.953 7.25315 15 6.12899 15 4.7915C15 3.20369 16.3431 1.9165 18 1.9165C19.6569 1.9165 21 3.20369 21 4.7915C21 6.13308 20.0411 7.26003 18.7444 7.57731C18.7062 8.86478 18.474 9.80507 18.043 10.4742C17.5392 11.2563 16.825 11.5776 16.1239 11.6996C15.7889 11.7579 15.4556 11.7717 15.1588 11.7755C15.025 11.7773 14.9078 11.7771 14.7977 11.777C14.6392 11.7769 14.4954 11.7767 14.338 11.7821C13.8201 11.7998 13.5904 11.8783 13.4566 12.007C13.0913 12.3586 12.911 12.7636 12.8237 13.3558C12.746 13.8825 12.7483 14.4947 12.7513 15.2979C12.7515 15.3394 12.7516 15.3816 12.7518 15.4242C14.0448 15.7439 15 16.8691 15 18.2082C15 19.796 13.6569 21.0832 12 21.0832C10.3431 21.0832 9 19.796 9 18.2082C9 16.8691 9.95521 15.7439 11.2482 15.4242L11.2487 15.2981C11.2517 14.4948 11.254 13.8825 11.1763 13.3558C11.089 12.7636 10.9087 12.3586 10.5434 12.007C10.4096 11.8783 10.1799 11.7998 9.66203 11.7821C9.50463 11.7767 9.36086 11.7769 9.20231 11.777C9.09226 11.7771 8.97504 11.7773 8.84124 11.7755C8.54444 11.7717 8.21107 11.7579 7.87615 11.6996C7.175 11.5776 6.46078 11.2563 5.95702 10.4742C5.52604 9.80507 5.29377 8.86477 5.25562 7.57731C3.95885 7.26003 3 6.13308 3 4.7915C3 3.20369 4.34315 1.9165 6 1.9165C7.65685 1.9165 9 3.20369 9 4.7915ZM6 6.229C6.82843 6.229 7.5 5.58541 7.5 4.7915C7.5 3.99759 6.82843 3.354 6 3.354C5.17157 3.354 4.5 3.99759 4.5 4.7915C4.5 5.58541 5.17157 6.229 6 6.229ZM18 6.229C18.8284 6.229 19.5 5.58541 19.5 4.7915C19.5 3.99759 18.8284 3.354 18 3.354C17.1716 3.354 16.5 3.99759 16.5 4.7915C16.5 5.58541 17.1716 6.229 18 6.229ZM13.5 18.2082C13.5 19.0021 12.8284 19.6457 12 19.6457C11.1716 19.6457 10.5 19.0021 10.5 18.2082C10.5 17.4143 11.1716 16.7707 12 16.7707C12.8284 16.7707 13.5 17.4143 13.5 18.2082Z" fill="currentColor"/>
</svg>
