<svg width="24" height="23" viewBox="0 0 24 23" fill="currentColor" xmlns="http://www.w3.org/2000/svg">
<path fill-rule="evenodd" clip-rule="evenodd" d="M10.1635 11.8613C11.5227 11.6289 12.4674 10.5958 12.2734 9.55367C12.0795 8.51157 10.8204 7.85513 9.4611 8.08748C8.10184 8.31983 7.15717 9.35297 7.35113 10.3951C7.54509 11.4372 8.80422 12.0936 10.1635 11.8613ZM10.6728 10.0637C10.8125 9.91087 10.7994 9.82023 10.7968 9.80609C10.7941 9.79195 10.7738 9.70253 10.5875 9.6054C10.398 9.50665 10.0923 9.43977 9.72449 9.50264C9.35666 9.56552 9.09392 9.72957 8.95182 9.88499C8.81204 10.0379 8.82519 10.1285 8.82783 10.1426C8.83046 10.1568 8.85082 10.2462 9.03712 10.3433C9.22653 10.4421 9.53226 10.509 9.90009 10.4461C10.2679 10.3832 10.5307 10.2192 10.6728 10.0637Z" fill="currentColor"/>
<path d="M17.4238 11.0702C17.5347 11.6663 16.9032 12.2728 16.0132 12.4249C15.1232 12.5771 14.3118 12.2172 14.2008 11.6211C14.0899 11.025 14.7214 10.4185 15.6114 10.2664C16.5014 10.1142 17.3128 10.4741 17.4238 11.0702Z" fill="currentColor"/>
<path fill-rule="evenodd" clip-rule="evenodd" d="M19.8331 13.0654C19.079 16.5489 15.8585 19.1668 11.9999 19.1668C9.62965 19.1668 7.50012 18.1789 6.03522 16.6094C5.9604 16.6022 5.8863 16.5944 5.81294 16.586C4.78934 16.469 3.86972 16.2342 3.14589 15.8591C2.42013 15.483 1.82965 14.9302 1.61613 14.1666C1.37801 13.3149 1.68136 12.4692 2.21599 11.7373C2.67646 11.1069 3.34969 10.4988 4.16682 9.93481C4.92091 6.45134 8.14142 3.8335 11.9999 3.8335C14.3703 3.8335 16.4998 4.82141 17.9647 6.39103C19.0147 6.49237 19.9576 6.71185 20.7069 7.06832C21.5008 7.44603 22.1558 8.01929 22.3835 8.83381C22.5971 9.59746 22.3741 10.3592 21.9418 11.0326C21.5106 11.7043 20.8367 12.3483 20.0113 12.94C19.9528 12.982 19.8934 13.0238 19.8331 13.0654ZM17.8514 14.2159C16.7985 16.2955 14.5739 17.7293 11.9999 17.7293C10.6473 17.7293 9.39114 17.3334 8.35082 16.6558C9.85937 16.5859 11.5235 16.3352 13.2292 15.8972C14.9356 15.459 16.5081 14.8785 17.8514 14.2159ZM18.4563 12.2256C17.0225 13.1135 15.0771 13.9345 12.841 14.5086C10.6052 15.0828 8.49229 15.304 6.78735 15.2222C5.97869 14.1837 5.49994 12.8955 5.49994 11.5002C5.49994 8.05989 8.41009 5.271 11.9999 5.271C15.5898 5.271 18.4999 8.05989 18.4999 11.5002C18.4999 11.7455 18.4851 11.9876 18.4563 12.2256ZM19.1423 8.0429C19.4872 8.13031 19.7874 8.23576 20.0399 8.35589C20.6092 8.62675 20.8577 8.93061 20.9346 9.20587C21.007 9.46469 20.9617 9.81589 20.6642 10.2794C20.5027 10.5311 20.2771 10.7979 19.9877 11.0732C19.9256 9.98754 19.6277 8.96203 19.1423 8.0429ZM4.01213 11.927C3.78418 12.1438 3.59473 12.3565 3.44483 12.5617C3.05049 13.1016 2.98467 13.5071 3.06502 13.7945C3.13739 14.0533 3.35983 14.3358 3.85936 14.5946C4.13016 14.735 4.46413 14.8578 4.85766 14.9575C4.37221 14.0383 4.07429 13.0127 4.01213 11.927Z" fill="currentColor"/>
</svg>
