<svg width="24" height="23" viewBox="0 0 24 23" fill="currentColor" xmlns="http://www.w3.org/2000/svg">
<path fill-rule="evenodd" clip-rule="evenodd" d="M8.49996 13.0775C8.49968 13.3238 8.49932 13.648 8.54161 13.9212C8.58879 14.226 8.74956 14.895 9.46387 15.2826C10.1782 15.6702 10.8595 15.4581 11.1565 15.34C11.4227 15.2343 11.7126 15.0671 11.9328 14.9402L14.677 13.3624C14.8857 13.2426 15.1665 13.0816 15.3834 12.9108C15.6321 12.7149 16.1225 12.2566 16.1225 11.5002C16.1225 10.7437 15.6321 10.2854 15.3834 10.0896C15.1665 9.91869 14.8857 9.75767 14.677 9.63795L11.9329 8.0601C11.7127 7.93318 11.4227 7.76606 11.1565 7.66027C10.8595 7.54222 10.1782 7.33012 9.46387 7.7177C8.74956 8.10529 8.58879 8.77431 8.54161 9.07913C8.49932 9.3523 8.49968 9.67654 8.49996 9.92279V13.0775ZM11.2116 9.32182L13.8567 10.8427C14.3673 11.1363 14.6225 11.2831 14.6225 11.5002C14.6225 11.7172 14.3673 11.864 13.8567 12.1576L11.2116 13.6785C10.6744 13.9874 10.4058 14.1418 10.2029 14.0317C10 13.9216 10 13.6214 10 13.0211V9.97923C10 9.37889 10 9.07872 10.2029 8.96862C10.4058 8.85851 10.6744 9.01295 11.2116 9.32182Z" fill="currentColor"/>
<path fill-rule="evenodd" clip-rule="evenodd" d="M9.94358 3.11475C8.10583 3.11473 6.65019 3.11472 5.51098 3.2615C4.33856 3.41256 3.38961 3.73084 2.64124 4.44802C1.89288 5.1652 1.56076 6.07461 1.40314 7.19818C1.24997 8.28993 1.24998 9.68491 1.25 11.4461V11.5542C1.24998 13.3154 1.24997 14.7104 1.40314 15.8021C1.56076 16.9257 1.89288 17.8351 2.64124 18.5523C3.38961 19.2695 4.33856 19.5878 5.51098 19.7388C6.65018 19.8856 8.1058 19.8856 9.94354 19.8856H14.0564C15.8942 19.8856 17.3498 19.8856 18.489 19.7388C19.6614 19.5878 20.6104 19.2695 21.3588 18.5523C22.1071 17.8351 22.4392 16.9257 22.5969 15.8021C22.75 14.7104 22.75 13.3154 22.75 11.5543V11.4461C22.75 9.68494 22.75 8.28992 22.5969 7.19818C22.4392 6.07461 22.1071 5.1652 21.3588 4.44802C20.6104 3.73084 19.6614 3.41256 18.489 3.2615C17.3498 3.11472 15.8942 3.11473 14.0564 3.11475H9.94358ZM3.7019 5.46449C4.12511 5.05891 4.70476 4.81581 5.71085 4.68618C6.73851 4.55377 8.09318 4.55225 10 4.55225H14C15.9068 4.55225 17.2615 4.55377 18.2892 4.68618C19.2952 4.81581 19.8749 5.05891 20.2981 5.46449C20.7213 5.87006 20.975 6.42556 21.1102 7.38973C21.2484 8.37457 21.25 9.67279 21.25 11.5002C21.25 13.3275 21.2484 14.6258 21.1102 15.6106C20.975 16.5748 20.7213 17.1303 20.2981 17.5358C19.8749 17.9414 19.2952 18.1845 18.2892 18.3141C17.2615 18.4466 15.9068 18.4481 14 18.4481H10C8.09318 18.4481 6.73851 18.4466 5.71085 18.3141C4.70476 18.1845 4.12511 17.9414 3.7019 17.5358C3.27869 17.1303 3.02502 16.5748 2.88976 15.6106C2.75159 14.6258 2.75 13.3275 2.75 11.5002C2.75 9.67279 2.75159 8.37457 2.88976 7.38973C3.02502 6.42556 3.27869 5.87006 3.7019 5.46449Z" fill="currentColor"/>
</svg>
